<?xml version="1.0" standalone="no"?>
<!DOCTYPE svg PUBLIC "-//W3C//DTD SVG 20010904//EN"
 "http://www.w3.org/TR/2001/REC-SVG-20010904/DTD/svg10.dtd">
<svg version="1.0" xmlns="http://www.w3.org/2000/svg"
 width="860.000000pt" height="852.000000pt" viewBox="0 0 860.000000 852.000000"
 preserveAspectRatio="xMidYMid meet">

<g transform="translate(0.000000,852.000000) scale(0.100000,-0.100000)"
fill="#000000" stroke="none">
<path d="M0 4260 l0 -4260 4300 0 4300 0 0 4260 0 4260 -4300 0 -4300 0 0
-4260z m4550 3750 c465 -35 888 -140 1296 -325 442 -199 819 -464 1172 -824
609 -621 984 -1439 1062 -2321 90 -1025 -214 -2036 -858 -2850 -368 -465 -899
-866 -1466 -1106 -339 -144 -609 -219 -996 -276 -124 -18 -192 -21 -465 -22
-328 -1 -425 6 -655 45 -660 113 -1313 428 -1855 894 -718 618 -1197 1535
-1305 2500 -39 349 -24 813 36 1140 23 120 98 417 134 525 246 735 701 1377
1310 1846 732 563 1666 843 2590 774z"/>
<path d="M3975 7830 c-44 -4 -111 -11 -150 -15 -192 -19 -511 -93 -745 -171
-327 -110 -737 -331 -1034 -557 -303 -231 -603 -550 -798 -852 -119 -184 -146
-229 -215 -365 -205 -398 -324 -790 -390 -1280 -22 -168 -25 -656 -5 -820 39
-312 91 -550 173 -795 74 -219 109 -306 198 -483 361 -721 943 -1302 1666
-1665 412 -206 775 -315 1230 -369 147 -17 637 -17 775 0 215 27 560 105 750
170 557 190 1048 502 1455 924 701 726 1084 1724 1051 2738 -18 562 -165 1133
-408 1590 -360 674 -910 1220 -1558 1549 -271 138 -462 211 -754 290 -324 89
-497 111 -881 116 -154 2 -316 0 -360 -5z m508 -332 c4 -7 58 -104 119 -216
61 -112 112 -201 115 -199 2 3 15 92 29 198 14 107 26 195 27 196 5 4 117 -14
123 -19 3 -3 -4 -91 -15 -195 -11 -103 -25 -242 -32 -308 -7 -66 -15 -127 -18
-135 -5 -13 -17 -14 -68 -7 -58 8 -62 11 -79 45 -9 20 -48 93 -87 162 -39 69
-84 151 -101 182 -17 31 -33 55 -36 53 -4 -2 -7 -23 -9 -47 -1 -24 -10 -113
-20 -198 l-17 -155 -60 0 -59 0 3 40 c2 22 14 155 28 295 13 140 25 269 26
285 1 17 4 34 6 39 7 13 116 -1 125 -16z m-767 -96 c9 -40 9 -54 1 -57 -7 -2
-66 -13 -132 -25 -66 -12 -123 -25 -126 -29 -3 -3 1 -36 10 -73 17 -77 10 -74
131 -53 118 21 117 21 129 -22 20 -70 20 -69 -88 -88 -55 -10 -105 -21 -112
-26 -12 -7 -5 -61 17 -140 4 -14 17 -13 122 8 64 12 126 25 138 28 18 4 22 -2
33 -51 7 -31 11 -58 8 -60 -6 -6 -399 -86 -403 -82 -2 3 -58 239 -115 488 -16
69 -29 132 -29 141 0 13 18 21 73 33 192 43 303 65 317 63 9 -1 19 -23 26 -55z
m1719 -74 c57 -14 131 -64 170 -115 68 -89 74 -237 14 -357 -87 -174 -248
-236 -433 -166 -83 32 -169 116 -189 187 -43 144 39 353 168 429 72 42 161 49
270 22z m-2367 -110 c22 -40 92 -175 156 -300 l117 -228 -57 -25 c-31 -14 -61
-25 -67 -25 -6 0 -45 22 -86 49 -95 61 -351 211 -351 206 0 -9 82 -190 129
-283 l51 -101 -57 -30 c-31 -17 -57 -30 -59 -28 -17 18 -294 596 -294 613 0 5
97 54 109 54 5 0 103 -56 216 -125 114 -69 210 -125 214 -125 4 0 -35 83 -86
185 l-94 186 53 24 c29 14 56 25 60 25 4 0 24 -33 46 -72z m2911 -164 c193
-116 295 -182 299 -193 3 -10 -8 -31 -47 -90 -7 -11 -23 -5 -82 32 -40 26 -76
47 -80 47 -3 0 -68 -96 -144 -212 -76 -117 -142 -217 -146 -222 -5 -5 -31 6
-64 27 l-55 37 77 118 c42 64 106 162 142 217 36 55 67 103 69 106 2 4 -32 28
-75 54 -43 27 -79 49 -80 50 -4 2 51 105 56 105 3 0 61 -34 130 -76z m-3609
-142 c0 -5 28 -47 63 -93 34 -46 102 -140 151 -209 49 -69 107 -148 127 -177
l38 -51 -54 -41 -54 -41 -28 38 c-16 20 -74 100 -128 177 -54 77 -127 180
-162 228 -36 48 -63 92 -61 96 5 13 88 81 99 81 5 0 9 -4 9 -8z m4133 -696
c-73 -181 -134 -331 -136 -332 -2 -2 -27 20 -55 49 l-53 53 31 68 c16 37 30
71 30 76 0 4 -42 42 -94 84 l-94 77 -57 -36 c-63 -40 -58 -41 -134 23 l-34 29
159 90 c87 50 227 127 309 171 l150 80 55 -51 55 -52 -132 -329z m-1968 353
c798 -77 1554 -610 1900 -1342 164 -348 236 -673 236 -1072 0 -437 -113 -853
-344 -1264 l-80 -144 -33 93 -32 93 36 60 c205 350 325 843 309 1262 -26 653
-309 1236 -797 1645 -141 118 -276 206 -450 294 -316 161 -636 237 -995 238
-215 1 -357 -17 -571 -72 -178 -45 -286 -86 -450 -168 -640 -321 -1081 -923
-1206 -1647 -30 -177 -33 -571 -5 -740 48 -289 149 -579 280 -804 l37 -62 -27
-90 c-15 -49 -30 -89 -34 -89 -6 0 -128 207 -167 285 -39 79 -135 322 -158
400 -128 442 -136 900 -23 1348 116 464 405 924 770 1227 515 430 1122 614
1804 549z m-2361 -317 c54 -56 101 -102 103 -102 3 0 43 35 89 78 47 42 88 77
92 77 5 0 28 -17 52 -38 l44 -37 -54 -47 c-30 -26 -97 -88 -148 -137 l-93 -90
-102 109 c-56 60 -157 168 -224 238 -68 71 -123 134 -123 140 0 6 19 31 42 55
l43 43 90 -93 c49 -51 134 -139 189 -196z m-502 -51 c24 -16 115 -75 203 -131
157 -101 296 -191 304 -196 2 -2 -13 -29 -34 -61 l-37 -58 -252 3 c-156 2
-247 0 -241 -6 6 -5 79 -55 163 -112 83 -57 152 -108 152 -113 0 -5 -14 -33
-30 -63 l-31 -53 -192 136 c-106 75 -221 156 -257 181 -36 25 -69 48 -73 52
-5 4 4 33 20 64 l28 57 252 -3 c139 -2 253 -1 253 2 0 3 -75 54 -166 114 -91
60 -167 113 -170 118 -7 11 43 98 56 98 5 0 29 -13 52 -29z m5374 -149 c92
-137 113 -193 94 -261 -13 -50 -67 -104 -125 -127 -43 -16 -123 -16 -171 0
-18 6 -24 1 -42 -41 -11 -26 -41 -90 -65 -141 l-45 -94 -36 60 c-20 33 -36 65
-36 72 0 8 25 66 56 131 l56 117 -21 31 c-12 17 -25 31 -29 31 -4 0 -45 -27
-91 -60 -47 -33 -89 -59 -95 -57 -13 4 -91 96 -85 101 2 2 78 53 169 113 217
144 332 222 350 239 8 8 19 13 25 11 5 -2 47 -58 91 -125z m-1610 -199 c-10
-89 -72 -359 -104 -453 -16 -47 -46 -122 -67 -167 l-38 -83 -116 -58 c-64 -33
-143 -69 -176 -82 -70 -27 -94 -45 -50 -37 56 11 253 29 265 25 18 -6 -121
-270 -195 -370 -54 -73 -69 -87 -121 -110 -73 -33 -126 -51 -228 -77 -88 -23
-103 -31 -60 -31 50 -1 216 -18 221 -24 9 -9 -92 -128 -188 -222 -96 -92 -183
-156 -324 -237 -113 -65 -138 -94 -171 -202 -33 -105 -39 -255 -15 -339 l14
-49 -29 -21 c-16 -11 -78 -66 -138 -121 -59 -55 -122 -111 -138 -124 l-30 -24
4 180 3 179 35 41 c63 74 247 394 335 583 48 102 98 210 112 240 150 323 430
742 761 1143 35 43 62 80 59 83 -14 14 -307 -298 -461 -490 -234 -292 -398
-568 -572 -961 -60 -137 -79 -171 -89 -155 -13 21 -16 286 -5 382 22 180 125
433 267 652 266 411 704 775 1139 946 54 21 101 39 103 39 2 1 1 -25 -3 -56z
m1882 -279 l23 -66 -28 -36 c-15 -20 -56 -69 -91 -110 -35 -40 -62 -75 -59
-78 3 -3 69 -13 147 -22 l143 -17 12 -35 c7 -19 15 -51 19 -70 l6 -36 -187 32
c-104 17 -197 33 -208 36 -11 2 -78 -15 -150 -39 -71 -24 -130 -43 -131 -43
-1 0 -4 6 -7 13 -3 6 -14 35 -26 64 l-20 52 122 41 122 42 75 90 c41 50 104
126 138 169 35 44 67 79 70 79 4 0 17 -30 30 -66z m-5843 -69 c48 -7 146 -56
200 -100 133 -108 135 -318 4 -460 -58 -62 -117 -88 -209 -89 -98 -1 -167 17
-240 64 -110 72 -158 170 -147 298 14 145 113 262 244 290 38 8 72 7 148 -3z
m5865 -1315 l20 -66 87 -36 88 -36 -35 -15 c-19 -8 -57 -24 -85 -34 -49 -19
-51 -21 -79 -96 -16 -42 -33 -77 -37 -77 -4 0 -17 29 -30 65 -12 36 -30 72
-39 80 -9 8 -47 27 -85 42 -38 15 -68 33 -67 38 1 6 36 21 78 35 l76 26 20 54
c11 30 25 70 31 88 10 31 12 32 24 16 8 -10 22 -48 33 -84z m-6045 6 l31 -77
79 -27 c43 -15 80 -31 82 -37 1 -5 -30 -23 -70 -39 -39 -16 -77 -33 -83 -38
-6 -4 -24 -40 -39 -80 -36 -91 -40 -96 -53 -61 -5 15 -20 54 -32 85 l-22 57
-84 33 c-46 18 -84 36 -84 40 0 3 37 19 83 34 45 15 85 32 89 38 4 6 17 44 29
84 12 40 27 71 32 69 6 -2 25 -38 42 -81z m2130 -77 c97 -15 248 -64 321 -105
61 -33 62 -35 66 -81 3 -27 4 -49 3 -51 -1 -1 -28 9 -60 24 -184 81 -458 119
-679 95 l-59 -6 -23 -70 c-12 -38 -64 -200 -114 -360 -95 -301 -152 -476 -166
-509 -7 -17 -3 -18 52 -14 148 13 451 -27 662 -88 132 -38 357 -137 488 -215
109 -65 263 -177 293 -213 25 -30 31 -16 31 77 0 115 29 659 35 666 3 2 5 -10
5 -27 0 -17 4 -111 10 -209 18 -327 20 -368 20 -445 l0 -78 83 67 c203 164
435 289 685 367 215 68 542 114 700 99 l64 -6 -7 24 c-22 72 -204 636 -248
769 l-52 154 -40 10 c-73 17 -380 12 -480 -8 -178 -35 -413 -124 -538 -203
-21 -13 -41 -22 -43 -20 -11 11 112 107 209 165 138 82 243 127 386 165 110
30 125 31 291 30 97 -1 206 -7 245 -15 l70 -13 42 -125 c23 -69 116 -345 206
-615 91 -269 164 -491 163 -492 -1 -1 -45 2 -97 8 -137 16 -447 5 -590 -20
-326 -58 -669 -199 -863 -355 -36 -29 -8 -28 61 2 208 92 549 187 793 223 95
14 498 16 599 2 l63 -8 39 -109 c21 -60 39 -115 39 -122 0 -9 -10 -10 -38 -3
-44 9 -244 35 -342 43 -149 13 -295 15 -455 6 -397 -22 -620 -76 -869 -212
-47 -26 -68 -32 -111 -30 -61 3 -84 11 -182 70 -151 91 -356 140 -699 167
-307 24 -507 18 -799 -25 -71 -10 -131 -17 -133 -15 -2 2 14 54 36 117 l40
113 38 7 c164 27 517 16 739 -23 210 -38 581 -150 705 -214 68 -35 49 -6 -33
52 -221 154 -565 279 -899 328 -117 17 -432 21 -530 7 -32 -5 -58 -6 -58 -2 0
4 66 200 146 436 80 236 173 510 206 609 34 99 65 183 70 186 9 6 168 26 248
32 57 4 180 -3 255 -14z m-520 -1805 c65 -52 252 -171 345 -218 292 -150 599
-231 958 -251 232 -13 588 43 831 130 184 67 433 204 589 327 l63 49 100 -7
c118 -8 119 -2 -27 -119 -404 -326 -887 -505 -1404 -522 -313 -10 -602 36
-909 144 -124 44 -359 166 -486 251 -146 98 -315 236 -295 240 41 8 176 17
185 13 6 -2 28 -19 50 -37z m-507 -116 c31 -29 99 -89 150 -132 l93 -80 -45
-44 -44 -45 -34 28 c-18 15 -62 54 -97 86 -35 33 -66 59 -70 58 -3 -1 -27 -25
-54 -54 l-47 -52 84 -84 85 -84 -38 -44 -39 -44 -88 78 -87 78 -41 -44 c-23
-25 -63 -68 -89 -97 l-48 -52 -44 37 c-25 20 -45 41 -45 46 0 5 39 54 88 109
48 55 106 123 130 151 59 69 214 237 218 237 2 0 30 -24 62 -52z m4037 -378
c105 -67 192 -124 194 -126 3 -3 -17 -26 -43 -53 l-48 -49 -59 46 -59 45 -23
-20 c-12 -10 -59 -46 -104 -78 -46 -32 -83 -62 -83 -66 0 -5 11 -34 25 -65 14
-31 25 -62 25 -69 0 -11 -109 -90 -115 -83 -3 4 -225 667 -225 673 0 3 30 25
66 49 l66 44 97 -62 c53 -35 182 -118 286 -186z m-3525 -40 c0 -7 -164 -316
-221 -417 l-30 -52 111 -62 c60 -34 110 -65 110 -69 0 -4 -12 -28 -26 -54
l-26 -46 -76 42 c-118 65 -246 139 -255 147 -4 4 3 27 16 52 13 24 66 123 117
219 51 96 110 208 132 247 l39 72 55 -36 c29 -20 54 -39 54 -43z m2752 -143
c52 -26 71 -44 105 -95 54 -81 68 -127 68 -233 0 -78 -3 -90 -30 -135 -38 -61
-95 -104 -232 -176 -160 -83 -144 -85 -196 24 -69 147 -230 518 -226 522 13 9
232 98 274 110 28 8 78 15 112 15 50 1 72 -5 125 -32z m-2022 -138 c39 -18 82
-46 96 -62 88 -105 104 -254 40 -392 -85 -185 -285 -245 -479 -142 -136 72
-189 222 -137 389 36 118 112 201 214 234 69 23 183 12 266 -27z m1344 -355
c36 -166 66 -306 66 -311 0 -10 -119 -37 -128 -29 -9 10 -142 598 -142 631 0
8 25 19 63 27 55 12 63 12 69 -2 3 -8 36 -151 72 -316z m-521 238 c56 -36 92
-103 92 -177 0 -79 -24 -128 -81 -161 l-44 -26 18 -32 c18 -29 41 -71 105
-187 l25 -47 -30 -6 c-17 -3 -50 -6 -74 -6 l-44 0 -62 125 -63 125 -53 0 c-52
0 -53 -1 -52 -27 1 -16 2 -72 1 -125 l-1 -98 -39 0 c-21 0 -52 3 -68 6 -28 6
-30 8 -27 52 1 26 3 174 3 330 l1 284 178 -4 c165 -3 180 -5 215 -26z"/>
<path d="M5274 7211 c-72 -33 -144 -157 -146 -249 -3 -137 143 -227 262 -161
106 60 168 250 111 342 -46 75 -148 105 -227 68z"/>
<path d="M6361 6423 l-115 -67 64 -58 c36 -32 67 -58 70 -58 5 0 81 169 106
235 9 24 -3 18 -125 -52z"/>
<path d="M6858 5957 c-42 -34 -80 -65 -83 -69 -4 -3 15 -29 42 -56 76 -79 147
-79 206 0 17 22 18 31 9 58 -12 34 -79 130 -90 129 -4 0 -42 -28 -84 -62z"/>
<path d="M3870 3410 c-12 -23 -50 -165 -50 -188 0 -18 105 124 114 154 4 14 1
28 -9 38 -22 22 -42 20 -55 -4z"/>
<path d="M1300 5358 c-71 -37 -112 -120 -95 -196 25 -115 242 -210 353 -153
55 28 92 91 92 157 0 84 -51 142 -160 182 -94 34 -138 36 -190 10z"/>
<path d="M6066 1894 c-3 -8 -2 -13 2 -10 4 3 26 -49 48 -114 21 -66 44 -120
49 -120 17 0 138 96 134 106 -3 7 -217 154 -225 154 -1 0 -5 -7 -8 -16z"/>
<path d="M5407 1526 c-37 -13 -72 -27 -78 -33 -7 -7 2 -40 29 -104 43 -101
130 -291 136 -297 8 -7 131 60 158 85 56 54 62 156 14 250 -54 108 -138 140
-259 99z"/>
<path d="M3435 1415 c-83 -30 -146 -141 -148 -262 0 -51 4 -69 26 -102 56 -84
173 -109 250 -54 92 65 135 236 85 333 -38 75 -135 114 -213 85z"/>
<path d="M4210 1200 l0 -100 69 0 c53 0 74 4 93 20 39 30 52 71 38 114 -17 53
-43 66 -127 66 l-73 0 0 -100z"/>
<path d="M7630 2500 c-9 -6 -10 -10 -3 -10 6 0 15 5 18 10 8 12 4 12 -15 0z"/>
<path d="M7566 2473 c-6 -14 -5 -15 5 -6 7 7 10 15 7 18 -3 3 -9 -2 -12 -12z"/>
<path d="M7266 1893 c-6 -14 -5 -15 5 -6 7 7 10 15 7 18 -3 3 -9 -2 -12 -12z"/>
<path d="M7099 1703 c-13 -16 -12 -17 4 -4 16 13 21 21 13 21 -2 0 -10 -8 -17
-17z"/>
<path d="M6605 1270 c-3 -5 -2 -10 4 -10 5 0 13 5 16 10 3 6 2 10 -4 10 -5 0
-13 -4 -16 -10z"/>
<path d="M6190 840 c-9 -6 -10 -10 -3 -10 6 0 15 5 18 10 8 12 4 12 -15 0z"/>
<path d="M5818 673 c7 -3 16 -2 19 1 4 3 -2 6 -13 5 -11 0 -14 -3 -6 -6z"/>
<path d="M5457 593 c-4 -3 -7 -11 -7 -17 0 -6 5 -5 12 2 6 6 9 14 7 17 -3 3
-9 2 -12 -2z"/>
</g>
</svg>
